<?xml version="1.0" encoding="UTF-8"?>
<svg xmlns="http://www.w3.org/2000/svg" xmlns:xlink="http://www.w3.org/1999/xlink" width="2772" height="2212" viewBox="-126 -2086 2772 2212">
<defs>
<style type="text/css">
.l235d4 {stroke: #0067A5; fill: #0067A5; fill-opacity: 0.5;}
.l71d20 {stroke: #B3446C; fill: #B3446C; fill-opacity: 0.5;}
</style>
</defs>
<rect x="-126" y="-2086" width="2772" height="2212" fill="#222222" stroke="none"/>
<g id="my_logo" transform="scale(1 -1)">
<polygon id="0x91de770" class="l71d20" points="413.95,969.45 566.95,969.45 566.95,1190.45 413.95,1190.45"/>
<polygon id="0x928b300" class="l71d20" points="228.85,1353.2 449.85,1353.2 449.85,1438.2 228.85,1438.2"/>
<polygon id="0x923c9d0" class="l71d20" points="1432.75,1662.75 1925.75,1662.75 1925.75,1730.75 1432.75,1730.75"/>
<polygon id="0x949d9a0" class="l71d20" points="494.55,1528.75 766.55,1528.75 766.55,1562.75 494.55,1562.75"/>
<polygon id="0x949f090" class="l71d20" points="39.75,1606.05 192.75,1606.05 192.75,1623.05 39.75,1623.05"/>
<polygon id="0x94728b0" class="l71d20" points="590.4,1476.2 930.4,1476.2 930.4,1493.2 590.4,1493.2"/>
<polygon id="0x92836e0" class="l71d20" points="1712.3,1571.45 2001.3,1571.45 2001.3,1622.45 1712.3,1622.45"/>
<polygon id="0x9237420" class="l71d20" points="2047.3,1474.75 2268.3,1474.75 2268.3,1491.75 2047.3,1491.75"/>
<polygon id="0x92d9330" class="l71d20" points="1157.55,1588.45 1225.55,1588.45 1225.55,1605.45 1157.55,1605.45"/>
<polygon id="0x92f5410" class="l71d20" points="1391.05,1588.45 1459.05,1588.45 1459.05,1605.45 1391.05,1605.45"/>
<polygon id="0x93785d0" class="l71d20" points="2131.75,1588.45 2233.75,1588.45 2233.75,1605.45 2131.75,1605.45"/>
<polygon id="0x936e6e0" class="l71d20" points="2083.8,1918.7 2423.8,1918.7 2423.8,1935.7 2083.8,1935.7"/>
<polygon id="0x93a7980" class="l71d20" points="1369.7,1796.2 1743.7,1796.2 1743.7,1830.2 1369.7,1830.2"/>
<polygon id="0x928b630" class="l71d20" points="2035.95,1867.25 2392.95,1867.25 2392.95,1884.25 2035.95,1884.25"/>
<polygon id="0x943dab0" class="l71d20" points="48.25,1811.95 388.25,1811.95 388.25,1845.95 48.25,1845.95"/>
<polygon id="0x946e1d0" class="l71d20" points="936.95,1688.5 1242.95,1688.5 1242.95,1705.5 936.95,1705.5"/>
<polygon id="0x938c310" class="l71d20" points="2080.1,1691.25 2250.1,1691.25 2250.1,1708.25 2080.1,1708.25"/>
<polygon id="0x94383e0" class="l71d20" points="1885.25,1375.6 2259.25,1375.6 2259.25,1392.6 1885.25,1392.6"/>
<polygon id="0x9463660" class="l71d20" points="376.35,1274.75 665.35,1274.75 665.35,1291.75 376.35,1291.75"/>
<polygon id="0x948f070" class="l71d20" points="81.6,1401.25 98.6,1401.25 98.6,1418.25 81.6,1418.25"/>
<polygon id="0x92981f0" class="l71d20" points="162,1072.05 196,1072.05 196,1106.05 162,1106.05"/>
<polygon id="0x90ceb60" class="l71d20" points="134,998.9 168,998.9 168,1015.9 134,1015.9"/>
<polygon id="0x9461d70" class="l71d20" points="141.15,1155.35 226.15,1155.35 226.15,1172.35 141.15,1172.35"/>
<polygon id="0x946d0a0" class="l71d20" points="1397.2,1040.7 1584.2,1040.7 1584.2,1074.7 1397.2,1074.7"/>
<polygon id="0x9289aa0" class="l71d20" points="1409.65,987.55 1647.65,987.55 1647.65,1004.55 1409.65,1004.55"/>
<polygon id="0x9312b40" class="l71d20" points="1518.8,1122.45 1739.8,1122.45 1739.8,1139.45 1518.8,1139.45"/>
<polygon id="0x933e810" class="l71d20" points="666.45,713 989.45,713 989.45,866 666.45,866"/>
<polygon id="0x938bf40" class="l71d20" points="2141.9,762.55 2345.9,762.55 2345.9,796.55 2141.9,796.55"/>
<polygon id="0x936fa30" class="l71d20" points="1481.05,831 1872.05,831 1872.05,848 1481.05,848"/>
<polygon id="0x9439d50" class="l71d20" points="1939.55,908.5 2398.55,908.5 2398.55,925.5 1939.55,925.5"/>
<polygon id="0x9414b90" class="l71d20" points="76.9,808.1 161.9,808.1 161.9,825.1 76.9,825.1"/>
<polygon id="0x9466210" class="l71d20" points="118.75,754.2 169.75,754.2 169.75,771.2 118.75,771.2"/>
<polygon id="0x947b4b0" class="l71d20" points="471.35,756.5 556.35,756.5 556.35,790.5 471.35,790.5"/>
<polygon id="0x92c21f0" class="l71d20" points="462.9,827.7 513.9,827.7 513.9,844.7 462.9,844.7"/>
<polygon id="0x92c7c10" class="l71d20" points="949.7,200.6 1340.7,200.6 1340.7,285.6 949.7,285.6"/>
<polygon id="0x92f4db0" class="l71d20" points="1400.4,242.7 1587.4,242.7 1587.4,259.7 1400.4,259.7"/>
<polygon id="0x937f270" class="l71d20" points="256.6,403.4 749.6,403.4 749.6,488.4 256.6,488.4"/>
<polygon id="0x936c980" class="l71d20" points="589.2,552.6 1524.2,552.6 1524.2,569.6 589.2,569.6"/>
<polygon id="0x93dde30" class="l71d20" points="1267.85,610 1675.85,610 1675.85,627 1267.85,627"/>
<polygon id="0x93f3da0" class="l71d20" points="615.55,661.75 1193.55,661.75 1193.55,678.75 615.55,678.75"/>
<polygon id="0x940d600" class="l71d20" points="39.5,435.1 56.5,435.1 56.5,452.1 39.5,452.1"/>
<polygon id="0x935a0c0" class="l71d20" points="164.4,442.55 181.4,442.55 181.4,459.55 164.4,459.55"/>
<polygon id="0x93a9640" class="l71d20" points="1229.05,346.05 1909.05,346.05 1909.05,363.05 1229.05,363.05"/>
<polygon id="0x93cb0d0" class="l71d20" points="2125.15,449.15 2499.15,449.15 2499.15,466.15 2125.15,466.15"/>
<polygon id="0x93dfd60" class="l71d20" points="412.25,143.15 1041.25,143.15 1041.25,160.15 412.25,160.15"/>
<polygon id="0x9447130" class="l71d20" points="386.1,67.55 420.1,67.55 420.1,84.55 386.1,84.55"/>
<polygon id="0x942da90" class="l71d20" points="137.7,69.85 222.7,69.85 222.7,86.85 137.7,86.85"/>
<polygon id="0x94a2be0" class="l71d20" points="105.3,17.55 156.3,17.55 156.3,34.55 105.3,34.55"/>
<polygon id="0x9211be0" class="l71d20" points="686.95,33.9 839.95,33.9 839.95,67.9 686.95,67.9"/>
<polygon id="0x920ff40" class="l71d20" points="1952.15,41.7 2275.15,41.7 2275.15,75.7 1952.15,75.7"/>
<polygon id="0x921a9c0" class="l71d20" points="107.65,237.65 192.65,237.65 192.65,254.65 107.65,254.65"/>
<polygon id="0x92c3560" class="l71d20" points="581.75,242.9 666.75,242.9 666.75,259.9 581.75,259.9"/>
<polygon id="0x92cebd0" class="l235d4" points="0,0 2520,0 2520,1960 0,1960"/>
</g>
</svg>