<?xml version="1.0" encoding="UTF-8"?>
<svg xmlns="http://www.w3.org/2000/svg" xmlns:xlink="http://www.w3.org/1999/xlink" width="2365" height="1615" viewBox="-107.5 -1507.5 2365 1615">
<defs>
<style type="text/css">
.l235d4 {stroke: #0067A5; fill: #0067A5; fill-opacity: 0.5;}
.l71d20 {stroke: #B3446C; fill: #B3446C; fill-opacity: 0.5;}
</style>
</defs>
<rect x="-107.5" y="-1507.5" width="2365" height="1615" fill="#222222" stroke="none"/>
<g id="my_logo" transform="scale(1 -1)">
<polygon id="0x10d47770" class="l71d20" points="294.5,589.9 532.5,589.9 532.5,742.9 294.5,742.9"/>
<polygon id="0x10df4300" class="l71d20" points="123.55,615.75 157.55,615.75 157.55,632.75 123.55,632.75"/>
<polygon id="0x10da59d0" class="l71d20" points="219.45,697.45 236.45,697.45 236.45,714.45 219.45,714.45"/>
<polygon id="0x110069a0" class="l71d20" points="58.85,682.05 75.85,682.05 75.85,699.05 58.85,699.05"/>
<polygon id="0x11008090" class="l71d20" points="1726.75,686.7 1964.75,686.7 1964.75,703.7 1726.75,703.7"/>
<polygon id="0x10fdb8b0" class="l71d20" points="1447.25,629.8 1736.25,629.8 1736.25,646.8 1447.25,646.8"/>
<polygon id="0x10dec6e0" class="l71d20" points="1564.3,1079.1 1751.3,1079.1 1751.3,1147.1 1564.3,1147.1"/>
<polygon id="0x10da0420" class="l71d20" points="39.1,1110.7 243.1,1110.7 243.1,1127.7 39.1,1127.7"/>
<polygon id="0x10e42330" class="l71d20" points="636.55,976.8 976.55,976.8 976.55,1044.8 636.55,1044.8"/>
<polygon id="0x10e5e410" class="l71d20" points="1794.5,1000.65 2015.5,1000.65 2015.5,1017.65 1794.5,1017.65"/>
<polygon id="0x10ee15d0" class="l71d20" points="139.9,1010.45 292.9,1010.45 292.9,1027.45 139.9,1027.45"/>
<polygon id="0x10ed76e0" class="l71d20" points="843.55,806.15 1098.55,806.15 1098.55,857.15 843.55,857.15"/>
<polygon id="0x10f10980" class="l71d20" points="180.45,823.15 452.45,823.15 452.45,840.15 180.45,840.15"/>
<polygon id="0x10df4630" class="l71d20" points="1919.1,916.6 2089.1,916.6 2089.1,933.6 1919.1,933.6"/>
<polygon id="0x10fa6ab0" class="l71d20" points="874.95,912.45 1112.95,912.45 1112.95,929.45 874.95,929.45"/>
<polygon id="0x10fd71d0" class="l71d20" points="1785.1,823.15 1887.1,823.15 1887.1,840.15 1785.1,840.15"/>
<polygon id="0x10ef5310" class="l71d20" points="1237.35,823.15 1356.35,823.15 1356.35,840.15 1237.35,840.15"/>
<polygon id="0x10fa13e0" class="l71d20" points="1610.7,1199.3 1933.7,1199.3 1933.7,1233.3 1610.7,1233.3"/>
<polygon id="0x10fcc660" class="l71d20" points="1399.25,1317.7 1739.25,1317.7 1739.25,1351.7 1399.25,1351.7"/>
<polygon id="0x10ff8070" class="l71d20" points="2048.4,1102.3 2116.4,1102.3 2116.4,1119.3 2048.4,1119.3"/>
<polygon id="0x10e011f0" class="l71d20" points="1095.8,144.35 1401.8,144.35 1401.8,229.35 1095.8,229.35"/>
<polygon id="0x10c37b60" class="l71d20" points="1476.65,45.25 1918.65,45.25 1918.65,62.25 1476.65,62.25"/>
<polygon id="0x10fcad70" class="l71d20" points="965.75,318.7 1509.75,318.7 1509.75,386.7 965.75,386.7"/>
<polygon id="0x10fd60a0" class="l71d20" points="153.5,347.45 374.5,347.45 374.5,364.45 153.5,364.45"/>
<polygon id="0x10df2aa0" class="l71d20" points="220.75,265.55 594.75,265.55 594.75,282.55 220.75,282.55"/>
<polygon id="0x10e7bb40" class="l71d20" points="444.2,435.1 750.2,435.1 750.2,469.1 444.2,469.1"/>
<polygon id="0x10ea7810" class="l71d20" points="1282.85,515.9 2081.85,515.9 2081.85,532.9 1282.85,532.9"/>
<polygon id="0x10ef4f40" class="l71d20" points="1774.7,349.15 1910.7,349.15 1910.7,366.15 1774.7,366.15"/>
<polygon id="0x10ed8a30" class="l71d20" points="2011.15,185.1 2113.15,185.1 2113.15,202.1 2011.15,202.1"/>
<polygon id="0x10fa2d50" class="l71d20" points="226.7,185.55 345.7,185.55 345.7,202.55 226.7,202.55"/>
<polygon id="0x10f7db90" class="l71d20" points="781.05,177.9 934.05,177.9 934.05,194.9 781.05,194.9"/>
<polygon id="0x10fcf210" class="l235d4" points="0,0 2150,0 2150,1400 0,1400"/>
</g>
</svg>