<?xml version="1.0" encoding="UTF-8"?>
<svg xmlns="http://www.w3.org/2000/svg" xmlns:xlink="http://www.w3.org/1999/xlink" width="3300" height="2200" viewBox="-150 -2050 3300 2200">
<defs>
<style type="text/css">
.l235d4 {stroke: #0067A5; fill: #0067A5; fill-opacity: 0.5;}
.l71d20 {stroke: #B3446C; fill: #B3446C; fill-opacity: 0.5;}
</style>
</defs>
<rect x="-150" y="-2050" width="3300" height="2200" fill="#222222" stroke="none"/>
<g id="my_logo" transform="scale(1 -1)">
<polygon id="0x1ebe7460" class="l71d20" points="1721.121796,136.797886 1993.121796,136.797886 1993.121796,289.797886 1721.121796,289.797886"/>
<polygon id="0x1ee982a0" class="l71d20" points="110.623374,77.116407 365.623374,77.116407 365.623374,94.116407 110.623374,94.116407"/>
<polygon id="0x1ef44dc0" class="l71d20" points="1690.088152,25.909038 2047.088152,25.909038 2047.088152,42.909038 1690.088152,42.909038"/>
<polygon id="0x1ef464b0" class="l71d20" points="249.529384,1023.468163 674.529384,1023.468163 674.529384,1193.468163 249.529384,1193.468163"/>
<polygon id="0x1ef1d7a0" class="l71d20" points="976.083465,1101.90793 1486.083465,1101.90793 1486.083465,1135.90793 976.083465,1135.90793"/>
<polygon id="0x1ef10790" class="l71d20" points="1061.476614,1045.628112 1537.476614,1045.628112 1537.476614,1062.628112 1061.476614,1062.628112"/>
<polygon id="0x1ec3f820" class="l71d20" points="413.936593,1646.265168 1076.936593,1646.265168 1076.936593,1765.265168 413.936593,1765.265168"/>
<polygon id="0x1ecce550" class="l71d20" points="1364.485858,1672.571796 1619.485858,1672.571796 1619.485858,1689.571796 1364.485858,1689.571796"/>
<polygon id="0x1edda700" class="l71d20" points="2238.844842,1726.022788 2663.844842,1726.022788 2663.844842,1743.022788 2238.844842,1743.022788"/>
<polygon id="0x1ef51c50" class="l71d20" points="2080.301194,1856.320502 2845.301194,1856.320502 2845.301194,1873.320502 2080.301194,1873.320502"/>
<polygon id="0x1ee14fb0" class="l71d20" points="1400.120288,1802.389875 2369.120288,1802.389875 2369.120288,1819.389875 1400.120288,1819.389875"/>
<polygon id="0x1ee4dea0" class="l71d20" points="2195.250747,1534.577544 2773.250747,1534.577544 2773.250747,1585.577544 2195.250747,1585.577544"/>
<polygon id="0x1eea0420" class="l71d20" points="919.939326,1551.577544 1531.939326,1551.577544 1531.939326,1568.577544 919.939326,1568.577544"/>
<polygon id="0x1eddc5a0" class="l71d20" points="338.311269,1369.189738 797.311269,1369.189738 797.311269,1454.189738 338.311269,1454.189738"/>
<polygon id="0x1eee3770" class="l71d20" points="902.372728,1389.09071 1055.372728,1389.09071 1055.372728,1406.09071 902.372728,1406.09071"/>
<polygon id="0x1eb85bf0" class="l71d20" points="2616.601518,1400.458441 2854.601518,1400.458441 2854.601518,1417.458441 2616.601518,1417.458441"/>
<polygon id="0x1eecad90" class="l71d20" points="986.745146,1298.947957 1785.745146,1298.947957 1785.745146,1315.947957 986.745146,1315.947957"/>
<polygon id="0x1ef36770" class="l71d20" points="1435.842718,1233.070502 1860.842718,1233.070502 1860.842718,1250.070502 1435.842718,1250.070502"/>
<polygon id="0x1ec69270" class="l71d20" points="154.265847,1406.306094 256.265847,1406.306094 256.265847,1423.306094 154.265847,1423.306094"/>
<polygon id="0x1eea56d0" class="l71d20" points="2911.086986,1551.577544 2945.086986,1551.577544 2945.086986,1568.577544 2911.086986,1568.577544"/>
<polygon id="0x1ef400e0" class="l71d20" points="153.804429,1664.615704 238.804429,1664.615704 238.804429,1681.615704 153.804429,1681.615704"/>
<polygon id="0x1ed09a50" class="l71d20" points="57.537882,1716.985158 159.537882,1716.985158 159.537882,1733.985158 57.537882,1733.985158"/>
<polygon id="0x1ed757a0" class="l71d20" points="50.043067,1143.48205 84.043067,1143.48205 84.043067,1160.48205 50.043067,1160.48205"/>
<polygon id="0x1edba0f0" class="l71d20" points="51.815408,1060.611085 102.815408,1060.611085 102.815408,1077.611085 51.815408,1077.611085"/>
<polygon id="0x1ede51e0" class="l71d20" points="822.680268,481.930952 1128.680268,481.930952 1128.680268,617.930952 822.680268,617.930952"/>
<polygon id="0x1ee324b0" class="l71d20" points="512.423645,506.349105 750.423645,506.349105 750.423645,523.349105 512.423645,523.349105"/>
<polygon id="0x1ee16350" class="l71d20" points="32.637955,577.615999 236.637955,577.615999 236.637955,594.615999 32.637955,594.615999"/>
<polygon id="0x1ee64120" class="l71d20" points="2606.036569,382.157405 2980.036569,382.157405 2980.036569,416.157405 2606.036569,416.157405"/>
<polygon id="0x1ef03ec0" class="l71d20" points="1502.499684,325.933305 2012.499684,325.933305 2012.499684,342.933305 1502.499684,342.933305"/>
<polygon id="0x1eec95f0" class="l71d20" points="257.88123,349.823401 495.88123,349.823401 495.88123,400.823401 257.88123,400.823401"/>
<polygon id="0x1ef0bf70" class="l71d20" points="62.115758,366.823401 96.115758,366.823401 96.115758,383.823401 62.115758,383.823401"/>
<polygon id="0x1ed68d90" class="l71d20" points="588.176394,366.823401 622.176394,366.823401 622.176394,383.823401 588.176394,383.823401"/>
<polygon id="0x1edc53c0" class="l71d20" points="1123.987783,334.674519 1344.987783,334.674519 1344.987783,368.674519 1123.987783,368.674519"/>
<polygon id="0x1ed9bca0" class="l71d20" points="1059.104737,411.138627 1144.104737,411.138627 1144.104737,428.138627 1059.104737,428.138627"/>
<polygon id="0x1ee25790" class="l71d20" points="884.816647,694.022791 1445.816647,694.022791 1445.816647,813.022791 884.816647,813.022791"/>
<polygon id="0x1ee8e080" class="l71d20" points="184.513414,876.462692 558.513414,876.462692 558.513414,910.462692 184.513414,910.462692"/>
<polygon id="0x1ee99740" class="l71d20" points="596.197686,965.759294 1276.197686,965.759294 1276.197686,982.759294 596.197686,982.759294"/>
<polygon id="0x1ef21460" class="l71d20" points="1665.664043,711.761589 1716.664043,711.761589 1716.664043,745.761589 1665.664043,745.761589"/>
<polygon id="0x1ec6ad90" class="l71d20" points="347.652242,722.461091 364.652242,722.461091 364.652242,756.461091 347.652242,756.461091"/>
<polygon id="0x1ee00bd0" class="l71d20" points="47.291724,740.897454 115.291724,740.897454 115.291724,774.897454 47.291724,774.897454"/>
<polygon id="0x1ee4fb60" class="l71d20" points="441.946531,725.392332 492.946531,725.392332 492.946531,742.392332 441.946531,742.392332"/>
<polygon id="0x1eec4890" class="l71d20" points="591.291772,776.803607 608.291772,776.803607 608.291772,793.803607 591.291772,793.803607"/>
<polygon id="0x1ef26ba0" class="l71d20" points="496.947479,778.841278 513.947479,778.841278 513.947479,795.841278 496.947479,795.841278"/>
<polygon id="0x1ef4a000" class="l71d20" points="825.007912,717.144995 842.007912,717.144995 842.007912,734.144995 825.007912,734.144995"/>
<polygon id="0x1ec4d620" class="l71d20" points="810.133372,774.345566 827.133372,774.345566 827.133372,791.345566 810.133372,791.345566"/>
<polygon id="0x1ece4310" class="l71d20" points="687.933369,754.956647 721.933369,754.956647 721.933369,771.956647 687.933369,771.956647"/>
<polygon id="0x1ecc10f0" class="l71d20" points="2725.070726,756.766928 2810.070726,756.766928 2810.070726,841.766928 2725.070726,841.766928"/>
<polygon id="0x1ed6a0b0" class="l71d20" points="2886.257967,801.907843 2903.257967,801.907843 2903.257967,818.907843 2886.257967,818.907843"/>
<polygon id="0x1ee75de0" class="l71d20" points="2965.089111,805.109476 2982.089111,805.109476 2982.089111,822.109476 2965.089111,822.109476"/>
<polygon id="0x1ee77300" class="l71d20" points="2788.471664,672.751896 2839.471664,672.751896 2839.471664,689.751896 2788.471664,689.751896"/>
<polygon id="0x1ee75790" class="l71d20" points="2844.778413,954.329604 2895.778413,954.329604 2895.778413,988.329604 2844.778413,988.329604"/>
<polygon id="0x1ef0f0b0" class="l71d20" points="2809.872295,901.076967 2843.872295,901.076967 2843.872295,918.076967 2809.872295,918.076967"/>
<polygon id="0x1ef1aac0" class="l71d20" points="2908.391416,899.075315 2942.391416,899.075315 2942.391416,916.075315 2908.391416,916.075315"/>
<polygon id="0x1ef3aea0" class="l71d20" points="2542.756809,729.787481 2593.756809,729.787481 2593.756809,797.787481 2542.756809,797.787481"/>
<polygon id="0x1ecb8280" class="l71d20" points="2482.25703,754.006864 2499.25703,754.006864 2499.25703,771.006864 2482.25703,771.006864"/>
<polygon id="0x1eccdf50" class="l71d20" points="2510.599592,971.03831 2527.599592,971.03831 2527.599592,988.03831 2510.599592,988.03831"/>
<polygon id="0x1ec94d00" class="l71d20" points="2484.118603,844.209538 2501.118603,844.209538 2501.118603,861.209538 2484.118603,861.209538"/>
<polygon id="0x1ee802a0" class="l71d20" points="2601,967.875924 2618,967.875924 2618,984.875924 2601,984.875924"/>
<polygon id="0x1eeb6ab0" class="l71d20" points="2612.805393,866.188816 2629.805393,866.188816 2629.805393,883.188816 2612.805393,883.188816"/>
<polygon id="0x1ef091c0" class="l71d20" points="2554.41125,663.983205 2605.41125,663.983205 2605.41125,680.983205 2554.41125,680.983205"/>
<polygon id="0x1ef1b410" class="l71d20" points="1930.630996,755.300929 2049.630996,755.300929 2049.630996,789.300929 1930.630996,789.300929"/>
<polygon id="0x1ef4cc70" class="l71d20" points="1923.575713,664.791297 1940.575713,664.791297 1940.575713,681.791297 1923.575713,681.791297"/>
<polygon id="0x1ed27940" class="l71d20" points="2056.946852,667.93464 2073.946852,667.93464 2073.946852,684.93464 2056.946852,684.93464"/>
<polygon id="0x1ecdbbc0" class="l71d20" points="2150.221804,651.930952 2167.221804,651.930952 2167.221804,668.930952 2150.221804,668.930952"/>
<polygon id="0x1ecdbc30" class="l71d20" points="1901.812486,924.702249 1918.812486,924.702249 1918.812486,975.702249 1901.812486,975.702249"/>
<polygon id="0x1ed19db0" class="l71d20" points="1891.162303,873.039176 1908.162303,873.039176 1908.162303,890.039176 1891.162303,890.039176"/>
<polygon id="0x1ed35bf0" class="l71d20" points="2016.328961,932.635625 2033.328961,932.635625 2033.328961,966.635625 2016.328961,966.635625"/>
<polygon id="0x1ed4b330" class="l71d20" points="1972,874.174219 1989,874.174219 1989,891.174219 1972,891.174219"/>
<polygon id="0x1ee13210" class="l71d20" points="2100.200823,874.145625 2134.200823,874.145625 2134.200823,891.145625 2100.200823,891.145625"/>
<polygon id="0x1ee51980" class="l71d20" points="2124.753034,961.608175 2158.753034,961.608175 2158.753034,978.608175 2124.753034,978.608175"/>
<polygon id="0x1eb975a0" class="l71d20" points="2330.813593,775.450832 2381.813593,775.450832 2381.813593,894.450832 2330.813593,894.450832"/>
<polygon id="0x1ef52380" class="l71d20" points="2258.255734,970.82264 2292.255734,970.82264 2292.255734,987.82264 2258.255734,987.82264"/>
<polygon id="0x1ee55cd0" class="l71d20" points="2380.501878,928.450832 2397.501878,928.450832 2397.501878,945.450832 2380.501878,945.450832"/>
<polygon id="0x1ee55d90" class="l71d20" points="2248.915307,828.786161 2265.915307,828.786161 2265.915307,845.786161 2248.915307,845.786161"/>
<polygon id="0x1ee6a5f0" class="l71d20" points="2276.071596,651.957489 2344.071596,651.957489 2344.071596,668.957489 2276.071596,668.957489"/>
<polygon id="0x1ee6a6b0" class="l71d20" points="2257.935003,712.865206 2308.935003,712.865206 2308.935003,729.865206 2257.935003,729.865206"/>
<polygon id="0x1ee9c060" class="l71d20" points="1779.92451,561.564922 2340.92451,561.564922 2340.92451,595.564922 1779.92451,595.564922"/>
<polygon id="0x1ee9c120" class="l71d20" points="2518.098664,499.228196 2824.098664,499.228196 2824.098664,516.228196 2518.098664,516.228196"/>
<polygon id="0x1eeecda0" class="l71d20" points="727.900174,211.038343 948.900174,211.038343 948.900174,228.038343 727.900174,228.038343"/>
<polygon id="0x1eeece60" class="l71d20" points="1380.886944,158.539824 1584.886944,158.539824 1584.886944,175.539824 1380.886944,175.539824"/>
<polygon id="0x1eee26b0" class="l71d20" points="2790.340328,207.962888 2943.340328,207.962888 2943.340328,224.962888 2790.340328,224.962888"/>
<polygon id="0x1eee2770" class="l71d20" points="2490.846897,155.45215 2711.846897,155.45215 2711.846897,172.45215 2490.846897,172.45215"/>
<polygon id="0x1ef3e8a0" class="l235d4" points="0,0 3000,0 3000,1900 0,1900"/>
</g>
</svg>