<?xml version="1.0" encoding="UTF-8"?>
<svg xmlns="http://www.w3.org/2000/svg" xmlns:xlink="http://www.w3.org/1999/xlink" width="3025" height="2075" viewBox="-137.5 -1937.5 3025 2075">
<defs>
<style type="text/css">
.l235d4 {stroke: #0067A5; fill: #0067A5; fill-opacity: 0.5;}
.l71d20 {stroke: #B3446C; fill: #B3446C; fill-opacity: 0.5;}
</style>
</defs>
<rect x="-137.5" y="-1937.5" width="3025" height="2075" fill="#222222" stroke="none"/>
<g id="my_logo" transform="scale(1 -1)">
<polygon id="0x1d601770" class="l71d20" points="2355.05,990.4 2678.05,990.4 2678.05,1160.4 2355.05,1160.4"/>
<polygon id="0x1d6ae300" class="l71d20" points="1919.7,226.85 2293.7,226.85 2293.7,362.85 1919.7,362.85"/>
<polygon id="0x1d65f9d0" class="l71d20" points="567.05,141.85 856.05,141.85 856.05,158.85 567.05,158.85"/>
<polygon id="0x1d8c09a0" class="l71d20" points="2306.15,76.55 2476.15,76.55 2476.15,93.55 2306.15,93.55"/>
<polygon id="0x1d8c2090" class="l71d20" points="1850.3,19.75 2088.3,19.75 2088.3,36.75 1850.3,36.75"/>
<polygon id="0x1d8958b0" class="l71d20" points="1183.45,49.95 1506.45,49.95 1506.45,66.95 1183.45,66.95"/>
<polygon id="0x1d6a66e0" class="l71d20" points="1003.5,306 1190.5,306 1190.5,323 1003.5,323"/>
<polygon id="0x1d65a420" class="l71d20" points="576.85,251 1001.85,251 1001.85,268 576.85,268"/>
<polygon id="0x1d6fc330" class="l71d20" points="2002.35,788.65 2308.35,788.65 2308.35,924.65 2002.35,924.65"/>
<polygon id="0x1d718410" class="l71d20" points="64.45,826.65 336.45,826.65 336.45,843.65 64.45,843.65"/>
<polygon id="0x1d79b5d0" class="l71d20" points="619.75,887.65 738.75,887.65 738.75,904.65 619.75,904.65"/>
<polygon id="0x1d7916e0" class="l71d20" points="75.25,887.6 143.25,887.6 143.25,904.6 75.25,904.6"/>
<polygon id="0x1d7ca980" class="l71d20" points="980.75,814.85 1405.75,814.85 1405.75,848.85 980.75,848.85"/>
<polygon id="0x1d6ae630" class="l71d20" points="1211,889.25 1398,889.25 1398,906.25 1211,906.25"/>
<polygon id="0x1d860ab0" class="l71d20" points="2424.35,815.85 2509.35,815.85 2509.35,849.85 2424.35,849.85"/>
<polygon id="0x1d8911d0" class="l71d20" points="2468.6,888.35 2587.6,888.35 2587.6,905.35 2468.6,905.35"/>
<polygon id="0x1d7af310" class="l71d20" points="456.75,400.25 1323.75,400.25 1323.75,485.25 456.75,485.25"/>
<polygon id="0x1d85b3e0" class="l71d20" points="1702.85,610.85 1991.85,610.85 1991.85,644.85 1702.85,644.85"/>
<polygon id="0x1d886660" class="l71d20" points="1228.45,695.5 1687.45,695.5 1687.45,712.5 1228.45,712.5"/>
<polygon id="0x1d8b2070" class="l71d20" points="1810.2,541.7 2303.2,541.7 2303.2,558.7 1810.2,558.7"/>
<polygon id="0x1d6bb1f0" class="l71d20" points="333.4,579.7 452.4,579.7 452.4,664.7 333.4,664.7"/>
<polygon id="0x1d4f1b60" class="l71d20" points="385.3,704.75 470.3,704.75 470.3,721.75 385.3,721.75"/>
<polygon id="0x1d884d70" class="l71d20" points="80.15,619.1 114.15,619.1 114.15,636.1 80.15,636.1"/>
<polygon id="0x1d8900a0" class="l71d20" points="248.1,629.8 282.1,629.8 282.1,646.8 248.1,646.8"/>
<polygon id="0x1d6acaa0" class="l71d20" points="297.25,523.9 331.25,523.9 331.25,540.9 297.25,540.9"/>
<polygon id="0x1d735b40" class="l71d20" points="405.9,527.4 422.9,527.4 422.9,544.4 405.9,544.4"/>
<polygon id="0x1d761810" class="l71d20" points="476,523.35 493,523.35 493,540.35 476,540.35"/>
<polygon id="0x1d7aef40" class="l71d20" points="46.65,520.6 114.65,520.6 114.65,537.6 46.65,537.6"/>
<polygon id="0x1d792a30" class="l71d20" points="660.9,585.5 728.9,585.5 728.9,653.5 660.9,653.5"/>
<polygon id="0x1d85cd50" class="l71d20" points="560.6,713.6 645.6,713.6 645.6,730.6 560.6,730.6"/>
<polygon id="0x1d837b90" class="l71d20" points="586.65,603.8 603.65,603.8 603.65,620.8 586.65,620.8"/>
<polygon id="0x1d889210" class="l71d20" points="746.75,525.85 797.75,525.85 797.75,542.85 746.75,542.85"/>
<polygon id="0x1d89e4b0" class="l71d20" points="1056.65,585.35 1073.65,585.35 1073.65,619.35 1056.65,619.35"/>
<polygon id="0x1d6e51f0" class="l71d20" points="1020,669.2 1037,669.2 1037,686.2 1020,686.2"/>
<polygon id="0x1d6eac10" class="l71d20" points="1062.45,532.35 1079.45,532.35 1079.45,549.35 1062.45,549.35"/>
<polygon id="0x1d717db0" class="l71d20" points="904.75,546.5 921.75,546.5 921.75,563.5 904.75,563.5"/>
<polygon id="0x1d7a2270" class="l71d20" points="907.35,646.75 924.35,646.75 924.35,680.75 907.35,680.75"/>
<polygon id="0x1d78f980" class="l71d20" points="860,736.45 894,736.45 894,753.45 860,753.45"/>
<polygon id="0x1d800e30" class="l71d20" points="115.6,437.95 149.6,437.95 149.6,454.95 115.6,454.95"/>
<polygon id="0x1d816da0" class="l71d20" points="334.85,434.05 402.85,434.05 402.85,451.05 334.85,451.05"/>
<polygon id="0x1d830600" class="l71d20" points="1488.1,435.45 1760.1,435.45 1760.1,452.45 1488.1,452.45"/>
<polygon id="0x1d77d0c0" class="l71d20" points="2625.8,285.2 2693.8,285.2 2693.8,302.2 2625.8,302.2"/>
<polygon id="0x1d7cc640" class="l71d20" points="1698.65,1324.35 2157.65,1324.35 2157.65,1375.35 1698.65,1375.35"/>
<polygon id="0x1d7ee0d0" class="l71d20" points="353.8,1341.35 557.8,1341.35 557.8,1358.35 353.8,1358.35"/>
<polygon id="0x1d802d60" class="l71d20" points="474.9,1524.35 695.9,1524.35 695.9,1592.35 474.9,1592.35"/>
<polygon id="0x1d86a130" class="l71d20" points="400.45,1557.95 434.45,1557.95 434.45,1574.95 400.45,1574.95"/>
<polygon id="0x1d850a90" class="l71d20" points="136.6,1545.3 204.6,1545.3 204.6,1562.3 136.6,1562.3"/>
<polygon id="0x1d8c5be0" class="l71d20" points="712.6,1473.1 899.6,1473.1 899.6,1490.1 712.6,1490.1"/>
<polygon id="0x1d634be0" class="l71d20" points="965.25,1415.15 1118.25,1415.15 1118.25,1432.15 965.25,1432.15"/>
<polygon id="0x1d632f40" class="l71d20" points="544,1432.05 561,1432.05 561,1449.05 544,1449.05"/>
<polygon id="0x1d63d9c0" class="l71d20" points="466.8,1413.6 483.8,1413.6 483.8,1430.6 466.8,1430.6"/>
<polygon id="0x1d6e6560" class="l71d20" points="463.85,1469.35 480.85,1469.35 480.85,1486.35 463.85,1486.35"/>
<polygon id="0x1d6f1bd0" class="l71d20" points="267.95,1433.6 284.95,1433.6 284.95,1450.6 267.95,1450.6"/>
<polygon id="0x1d70dc70" class="l71d20" points="376.95,1451.95 393.95,1451.95 393.95,1468.95 376.95,1468.95"/>
<polygon id="0x1d7f2890" class="l71d20" points="34.2,1472.55 68.2,1472.55 68.2,1489.55 34.2,1489.55"/>
<polygon id="0x1d7f3ff0" class="l71d20" points="53.6,1418.85 70.6,1418.85 70.6,1435.85 53.6,1435.85"/>
<polygon id="0x1d899840" class="l71d20" points="176.6,1414.15 193.6,1414.15 193.6,1431.15 176.6,1431.15"/>
<polygon id="0x1d8b6790" class="l71d20" points="369.5,1636.75 794.5,1636.75 794.5,1670.75 369.5,1670.75"/>
<polygon id="0x1d8c8850" class="l71d20" points="634.45,1722.4 838.45,1722.4 838.45,1739.4 634.45,1739.4"/>
<polygon id="0x1d635400" class="l71d20" points="875.65,1552.45 1011.65,1552.45 1011.65,1569.45 875.65,1569.45"/>
<polygon id="0x1d6aee20" class="l71d20" points="2284.25,1455.65 2624.25,1455.65 2624.25,1506.65 2284.25,1506.65"/>
<polygon id="0x1d74d4f0" class="l71d20" points="2670.25,1472.65 2687.25,1472.65 2687.25,1489.65 2670.25,1489.65"/>
<polygon id="0x1d7fcd70" class="l71d20" points="1955.45,1584.5 2363.45,1584.5 2363.45,1652.5 1955.45,1652.5"/>
<polygon id="0x1d803150" class="l71d20" points="1844.5,1706.8 2031.5,1706.8 2031.5,1723.8 1844.5,1723.8"/>
<polygon id="0x1d8088f0" class="l71d20" points="2130.35,1761.75 2487.35,1761.75 2487.35,1778.75 2130.35,1778.75"/>
<polygon id="0x1d8339e0" class="l71d20" points="2576.3,1617.95 2644.3,1617.95 2644.3,1634.95 2576.3,1634.95"/>
<polygon id="0x1d84a3b0" class="l71d20" points="1588.4,1614.1 1690.4,1614.1 1690.4,1631.1 1588.4,1631.1"/>
<polygon id="0x1d896cf0" class="l71d20" points="1879.3,1472.65 2049.3,1472.65 2049.3,1489.65 1879.3,1489.65"/>
<polygon id="0x1d89a190" class="l71d20" points="575,1260.25 1153,1260.25 1153,1277.25 575,1277.25"/>
<polygon id="0x1d8b4480" class="l71d20" points="178,1202.35 841,1202.35 841,1219.35 178,1219.35"/>
<polygon id="0x1d854550" class="l71d20" points="2230.05,1341.35 2332.05,1341.35 2332.05,1358.35 2230.05,1358.35"/>
<polygon id="0x1d6a2d60" class="l71d20" points="2714.35,1054.2 2731.35,1054.2 2731.35,1071.2 2714.35,1071.2"/>
<polygon id="0x1d6a2dd0" class="l71d20" points="2714.75,1105.2 2731.75,1105.2 2731.75,1122.2 2714.75,1122.2"/>
<polygon id="0x1d5a5bb0" class="l71d20" points="431.25,1028.05 737.25,1028.05 737.25,1045.05 431.25,1045.05"/>
<polygon id="0x1d6b02f0" class="l71d20" points="1669.15,1098.9 2264.15,1098.9 2264.15,1115.9 1669.15,1115.9"/>
<polygon id="0x1d6b21f0" class="l235d4" points="0,0 2750,0 2750,1800 0,1800"/>
</g>
</svg>