<?xml version="1.0" encoding="UTF-8"?>
<svg xmlns="http://www.w3.org/2000/svg" xmlns:xlink="http://www.w3.org/1999/xlink" width="3300" height="2200" viewBox="-150 -2050 3300 2200">
<defs>
<style type="text/css">
.l235d4 {stroke: #0067A5; fill: #0067A5; fill-opacity: 0.5;}
.l71d20 {stroke: #B3446C; fill: #B3446C; fill-opacity: 0.5;}
</style>
</defs>
<rect x="-150" y="-2050" width="3300" height="2200" fill="#222222" stroke="none"/>
<g id="my_logo" transform="scale(1 -1)">
<polygon id="0xf9168f0" class="l71d20" points="866.65,939.45 1223.65,939.45 1223.65,1058.45 866.65,1058.45"/>
<polygon id="0xf935210" class="l71d20" points="2086,401.5 2409,401.5 2409,554.5 2086,554.5"/>
<polygon id="0xfab2c40" class="l71d20" points="1704.1,637.3 2350.1,637.3 2350.1,671.3 1704.1,671.3"/>
<polygon id="0xfbb7f90" class="l71d20" points="2247.6,767.9 2672.6,767.9 2672.6,818.9 2247.6,818.9"/>
<polygon id="0xfbaaf80" class="l71d20" points="2919.05,784.9 2953.05,784.9 2953.05,801.9 2919.05,801.9"/>
<polygon id="0xf7ea2f0" class="l71d20" points="2740.45,784.9 2757.45,784.9 2757.45,801.9 2740.45,801.9"/>
<polygon id="0xf89e0c0" class="l71d20" points="1884.3,784.9 1952.3,784.9 1952.3,801.9 1884.3,801.9"/>
<polygon id="0xf88da40" class="l71d20" points="2041.55,716.15 2262.55,716.15 2262.55,733.15 2041.55,733.15"/>
<polygon id="0xfb32a90" class="l71d20" points="1908.6,876.45 2350.6,876.45 2350.6,893.45 1908.6,893.45"/>
<polygon id="0xfb03400" class="l71d20" points="30.35,828.2 98.35,828.2 98.35,896.2 30.35,896.2"/>
<polygon id="0xfbe0ca0" class="l71d20" points="188.15,750.1 256.15,750.1 256.15,767.1 188.15,767.1"/>
<polygon id="0xfbec440" class="l71d20" points="162.7,861.6 179.7,861.6 179.7,878.6 162.7,878.6"/>
<polygon id="0xfbdf5b0" class="l71d20" points="252.1,850.65 269.1,850.65 269.1,867.65 252.1,867.65"/>
<polygon id="0xfb31a90" class="l71d20" points="326.1,826.1 411.1,826.1 411.1,860.1 326.1,860.1"/>
<polygon id="0xfb3f530" class="l71d20" points="379.35,756.45 430.35,756.45 430.35,773.45 379.35,773.45"/>
<polygon id="0xfb61150" class="l71d20" points="328.55,705.4 362.55,705.4 362.55,722.4 328.55,722.4"/>
<polygon id="0xfad1880" class="l71d20" points="640.15,717.9 657.15,717.9 657.15,751.9 640.15,751.9"/>
<polygon id="0xfb1eee0" class="l71d20" points="500.75,731.35 534.75,731.35 534.75,765.35 500.75,765.35"/>
<polygon id="0xfbba770" class="l71d20" points="1186.65,806.35 1458.65,806.35 1458.65,874.35 1186.65,874.35"/>
<polygon id="0xf909480" class="l71d20" points="1506,831.05 1557,831.05 1557,848.05 1506,848.05"/>
<polygon id="0xf906330" class="l71d20" points="722.95,836.3 875.95,836.3 875.95,853.3 722.95,853.3"/>
<polygon id="0xfb3fec0" class="l71d20" points="988.25,753.5 1345.25,753.5 1345.25,770.5 988.25,770.5"/>
<polygon id="0xfbda8d0" class="l71d20" points="2682.05,448.5 2818.05,448.5 2818.05,465.5 2682.05,465.5"/>
<polygon id="0xf9a4190" class="l71d20" points="2730.7,501.25 2815.7,501.25 2815.7,518.25 2730.7,518.25"/>
<polygon id="0xfa0fcb0" class="l71d20" points="2058.7,170.75 2670.7,170.75 2670.7,255.75 2058.7,255.75"/>
<polygon id="0xfa54600" class="l71d20" points="175.95,335.4 600.95,335.4 600.95,352.4 175.95,352.4"/>
<polygon id="0xfa7f6f0" class="l71d20" points="2893.25,204.1 2944.25,204.1 2944.25,221.1 2893.25,221.1"/>
<polygon id="0xfacc9c0" class="l71d20" points="1745.3,88.35 2119.3,88.35 2119.3,122.35 1745.3,122.35"/>
<polygon id="0xfab0860" class="l71d20" points="1215.65,34.75 1725.65,34.75 1725.65,51.75 1215.65,51.75"/>
<polygon id="0xfafe630" class="l71d20" points="964.35,190.7 1491.35,190.7 1491.35,207.7 964.35,207.7"/>
<polygon id="0xfb9e6b0" class="l71d20" points="869.1,432.15 1141.1,432.15 1141.1,449.15 869.1,449.15"/>
<polygon id="0xfb63de0" class="l71d20" points="547.55,512.45 955.55,512.45 955.55,529.45 547.55,529.45"/>
<polygon id="0xfba6760" class="l71d20" points="2486.15,1014.1 2690.15,1014.1 2690.15,1031.1 2486.15,1031.1"/>
<polygon id="0xfa032a0" class="l71d20" points="2243.45,962.2 2685.45,962.2 2685.45,979.2 2243.45,979.2"/>
<polygon id="0xfa5f8d0" class="l71d20" points="1037.05,1595 1496.05,1595 1496.05,1731 1037.05,1731"/>
<polygon id="0xfa361b0" class="l71d20" points="348.75,1637.35 467.75,1637.35 467.75,1654.35 348.75,1654.35"/>
<polygon id="0xfabfcf0" class="l71d20" points="484.25,1688.65 552.25,1688.65 552.25,1705.65 484.25,1705.65"/>
<polygon id="0xfb288c0" class="l71d20" points="28.15,1691.8 96.15,1691.8 96.15,1708.8 28.15,1708.8"/>
<polygon id="0xfb33f80" class="l71d20" points="646,1612.8 697,1612.8 697,1629.8 646,1629.8"/>
<polygon id="0xfbbbca0" class="l71d20" points="852.15,1691.55 971.15,1691.55 971.15,1708.55 852.15,1708.55"/>
<polygon id="0xfaeced0" class="l71d20" points="1002.05,1831.85 1393.05,1831.85 1393.05,1848.85 1002.05,1848.85"/>
<polygon id="0xfb5f0d0" class="l71d20" points="1392.95,1780.5 2327.95,1780.5 2327.95,1797.5 1392.95,1797.5"/>
<polygon id="0xfbc13e0" class="l71d20" points="2146.95,1618.95 2350.95,1618.95 2350.95,1635.95 2146.95,1635.95"/>
<polygon id="0xfbe4840" class="l71d20" points="1796.5,1678.15 2221.5,1678.15 2221.5,1695.15 1796.5,1695.15"/>
<polygon id="0xf97eaa0" class="l71d20" points="1762.05,1378.05 2102.05,1378.05 2102.05,1480.05 1762.05,1480.05"/>
<polygon id="0xf95b880" class="l71d20" points="599.5,1417.7 820.5,1417.7 820.5,1434.7 599.5,1434.7"/>
<polygon id="0xfa04610" class="l71d20" points="186.25,1525 781.25,1525 781.25,1542 186.25,1542"/>
<polygon id="0xfb10340" class="l71d20" points="1648.15,1283.8 2515.15,1283.8 2515.15,1334.8 1648.15,1334.8"/>
<polygon id="0xfb11860" class="l71d20" points="1807.5,1129.95 2623.5,1129.95 2623.5,1163.95 1807.5,1163.95"/>
<polygon id="0xfb0fcf0" class="l71d20" points="170.35,1229.15 1156.35,1229.15 1156.35,1246.15 170.35,1246.15"/>
<polygon id="0xfba98f0" class="l71d20" points="2786.5,1300.8 2922.5,1300.8 2922.5,1317.8 2786.5,1317.8"/>
<polygon id="0xfbb5300" class="l71d20" points="724.55,1300.8 979.55,1300.8 979.55,1317.8 724.55,1317.8"/>
<polygon id="0xfbd56e0" class="l71d20" points="2558.7,1411.4 2762.7,1411.4 2762.7,1428.4 2558.7,1428.4"/>
<polygon id="0xf952e00" class="l71d20" points="357.45,1019.4 459.45,1019.4 459.45,1036.4 357.45,1036.4"/>
<polygon id="0xf9686e0" class="l71d20" points="75.05,964.55 228.05,964.55 228.05,981.55 75.05,981.55"/>
<polygon id="0xf92f310" class="l235d4" points="0,0 3000,0 3000,1900 0,1900"/>
</g>
</svg>